<svg xmlns="http://www.w3.org/2000/svg" version="1.1" xmlns:xlink="http://www.w3.org/1999/xlink"
    xmlns:svgjs="http://svgjs.com/svgjs" width="512" height="512" x="0" y="0" viewBox="0 0 24 24"
    style="enable-background:new 0 0 512 512" xml:space="preserve" class="">
    <g>
        <path fill="#1089ff" fill-rule="evenodd"
            d="M6.5 8C7.3 8 8 7.3 8 6.5S7.3 5 6.5 5 5 5.7 5 6.5 5.7 8 6.5 8zm3-7c.9 0 1.5 0 2 .1s1 .3 1.4.6c.5.3.9.7 1.5 1.4l.1.1 7.1 7.1c.9.9 1.4 2 1.4 3.3 0 1.2-.5 2.4-1.4 3.3l-4.9 4.9c-.9.9-2 1.4-3.3 1.4s-2.4-.5-3.3-1.4L3 14.7l-.1-.1c-.6-.6-1-1-1.4-1.5-.3-.4-.5-.9-.6-1.4.1-.8.1-1.4.1-2.2V8.4c0-1.1 0-2 .1-2.7s.2-1.4.5-2C2 2.8 2.8 2 3.7 1.5c.6-.3 1.2-.4 2-.5h3.7z"
            clip-rule="evenodd" opacity="1" data-original="#1089ff" class=""></path>
    </g>
</svg>